<mxfile host="Electron" modified="2021-10-23T19:09:21.539Z" agent="5.0 (Windows NT 10.0; Win64; x64) AppleWebKit/537.36 (KHTML, like Gecko) draw.io/13.9.9 Chrome/85.0.4183.121 Electron/10.1.5 Safari/537.36" etag="UclEqfSlZEboUPzGOrVk" version="13.9.9" type="device" pages="4">
  <diagram id="eQwurLcD6YKOo8-gMQfG" name="roadmap">
    <mxGraphModel dx="2354" dy="685" grid="1" gridSize="10" guides="1" tooltips="1" connect="1" arrows="1" fold="1" page="1" pageScale="1" pageWidth="1169" pageHeight="827" math="0" shadow="0">
      <root>
        <mxCell id="0" />
        <mxCell id="1" parent="0" />
        <mxCell id="hhvbmtpyPsZvsXLc2sTJ-11" value="Center rotation point at center of bounding box" style="rounded=0;whiteSpace=wrap;html=1;fontFamily=Roboto;fillColor=#d5e8d4;strokeColor=#82b366;" parent="1" vertex="1">
          <mxGeometry x="-550" y="570" width="120" height="60" as="geometry" />
        </mxCell>
        <mxCell id="hhvbmtpyPsZvsXLc2sTJ-13" value="Add horizontal snap to flat objects like city roads" style="rounded=0;whiteSpace=wrap;html=1;fontFamily=Roboto;fillColor=#d5e8d4;strokeColor=#82b366;" parent="1" vertex="1">
          <mxGeometry x="-550" y="190" width="120" height="60" as="geometry" />
        </mxCell>
        <mxCell id="hhvbmtpyPsZvsXLc2sTJ-14" value="Add portal component" style="rounded=0;whiteSpace=wrap;html=1;fontFamily=Roboto;fillColor=#d5e8d4;strokeColor=#82b366;" parent="1" vertex="1">
          <mxGeometry x="-550" y="120" width="120" height="60" as="geometry" />
        </mxCell>
        <mxCell id="hhvbmtpyPsZvsXLc2sTJ-15" value="move mesh cache to realm database" style="rounded=0;whiteSpace=wrap;html=1;fontFamily=Roboto;fillColor=#d5e8d4;strokeColor=#82b366;" parent="1" vertex="1">
          <mxGeometry x="-550" y="500" width="120" height="60" as="geometry" />
        </mxCell>
        <mxCell id="hhvbmtpyPsZvsXLc2sTJ-17" value="do not propagate events to the sender" style="rounded=0;whiteSpace=wrap;html=1;fontFamily=Roboto;fillColor=#e1d5e7;strokeColor=#9673a6;" parent="1" vertex="1">
          <mxGeometry x="-150" y="577" width="120" height="60" as="geometry" />
        </mxCell>
        <mxCell id="hhvbmtpyPsZvsXLc2sTJ-20" value="when sharing disable join button" style="rounded=0;whiteSpace=wrap;html=1;fontFamily=Roboto;fillColor=#e1d5e7;strokeColor=#9673a6;" parent="1" vertex="1">
          <mxGeometry x="-150" y="507" width="120" height="60" as="geometry" />
        </mxCell>
        <mxCell id="hhvbmtpyPsZvsXLc2sTJ-21" value="Enable VR &lt;br&gt;experience" style="rounded=0;whiteSpace=wrap;html=1;fontFamily=Roboto;fillColor=#dae8fc;strokeColor=#6c8ebf;" parent="1" vertex="1">
          <mxGeometry x="-350" y="430" width="120" height="60" as="geometry" />
        </mxCell>
        <mxCell id="hhvbmtpyPsZvsXLc2sTJ-22" value="prevent movement outside the box" style="rounded=0;whiteSpace=wrap;html=1;fontFamily=Roboto;fillColor=#dae8fc;strokeColor=#6c8ebf;" parent="1" vertex="1">
          <mxGeometry x="-350" y="500" width="120" height="60" as="geometry" />
        </mxCell>
        <mxCell id="hhvbmtpyPsZvsXLc2sTJ-23" value="add procedural skybox with kenney background-elements" style="rounded=0;whiteSpace=wrap;html=1;fontFamily=Roboto;fillColor=#dae8fc;strokeColor=#6c8ebf;" parent="1" vertex="1">
          <mxGeometry x="-350" y="570" width="121" height="60" as="geometry" />
        </mxCell>
        <mxCell id="hhvbmtpyPsZvsXLc2sTJ-24" value="Add key value set of data to 3D elements" style="rounded=0;whiteSpace=wrap;html=1;fontFamily=Roboto;fillColor=#ffe6cc;strokeColor=#d79b00;" parent="1" vertex="1">
          <mxGeometry x="-950" y="260" width="120" height="60" as="geometry" />
        </mxCell>
        <mxCell id="hhvbmtpyPsZvsXLc2sTJ-25" value="Add colision event to 3D element" style="rounded=0;whiteSpace=wrap;html=1;fontFamily=Roboto;fillColor=#ffe6cc;strokeColor=#d79b00;" parent="1" vertex="1">
          <mxGeometry x="-950" y="120" width="120" height="60" as="geometry" />
        </mxCell>
        <mxCell id="hhvbmtpyPsZvsXLc2sTJ-27" value="multiplayer" style="text;html=1;strokeColor=#9673a6;fillColor=#e1d5e7;align=center;verticalAlign=middle;whiteSpace=wrap;rounded=0;fontFamily=Roboto;" parent="1" vertex="1">
          <mxGeometry x="-160" y="30" width="120" height="20" as="geometry" />
        </mxCell>
        <mxCell id="hhvbmtpyPsZvsXLc2sTJ-28" value="coding" style="text;html=1;strokeColor=#d79b00;fillColor=#ffe6cc;align=center;verticalAlign=middle;whiteSpace=wrap;rounded=0;fontFamily=Roboto;" parent="1" vertex="1">
          <mxGeometry x="-960" y="30" width="120" height="20" as="geometry" />
        </mxCell>
        <mxCell id="hhvbmtpyPsZvsXLc2sTJ-29" value="editor" style="text;html=1;strokeColor=#82b366;fillColor=#d5e8d4;align=center;verticalAlign=middle;whiteSpace=wrap;rounded=0;fontFamily=Roboto;" parent="1" vertex="1">
          <mxGeometry x="-560" y="30" width="120" height="20" as="geometry" />
        </mxCell>
        <mxCell id="hhvbmtpyPsZvsXLc2sTJ-31" value="Create executable plugins" style="rounded=0;whiteSpace=wrap;html=1;fontFamily=Roboto;fillColor=#fff2cc;strokeColor=#d6b656;" parent="1" vertex="1">
          <mxGeometry x="-750" y="430" width="120" height="60" as="geometry" />
        </mxCell>
        <mxCell id="hhvbmtpyPsZvsXLc2sTJ-32" value="Expose create scene element to plugin" style="rounded=0;whiteSpace=wrap;html=1;fontFamily=Roboto;fillColor=#fff2cc;strokeColor=#d6b656;" parent="1" vertex="1">
          <mxGeometry x="-750" y="120" width="120" height="60" as="geometry" />
        </mxCell>
        <mxCell id="hhvbmtpyPsZvsXLc2sTJ-33" value="Expose show Message to plugin" style="rounded=0;whiteSpace=wrap;html=1;fontFamily=Roboto;fillColor=#fff2cc;strokeColor=#d6b656;" parent="1" vertex="1">
          <mxGeometry x="-750" y="500" width="120" height="60" as="geometry" />
        </mxCell>
        <mxCell id="hhvbmtpyPsZvsXLc2sTJ-34" value="Expose wait for choosing point to plugin" style="rounded=0;whiteSpace=wrap;html=1;fontFamily=Roboto;fillColor=#fff2cc;strokeColor=#d6b656;" parent="1" vertex="1">
          <mxGeometry x="-750" y="570" width="120" height="60" as="geometry" />
        </mxCell>
        <mxCell id="hhvbmtpyPsZvsXLc2sTJ-35" value="plugins" style="text;html=1;strokeColor=#d6b656;fillColor=#fff2cc;align=center;verticalAlign=middle;whiteSpace=wrap;rounded=0;fontFamily=Roboto;" parent="1" vertex="1">
          <mxGeometry x="-760" y="30" width="120" height="20" as="geometry" />
        </mxCell>
        <mxCell id="hhvbmtpyPsZvsXLc2sTJ-36" value="Create command line that can execute the same commands as plugins" style="rounded=0;whiteSpace=wrap;html=1;fontFamily=Roboto;fillColor=#fff2cc;strokeColor=#d6b656;" parent="1" vertex="1">
          <mxGeometry x="-750" y="710" width="120" height="60" as="geometry" />
        </mxCell>
        <mxCell id="hhvbmtpyPsZvsXLc2sTJ-38" value="Import 3D files" style="rounded=0;whiteSpace=wrap;html=1;fontFamily=Roboto;fillColor=#d5e8d4;strokeColor=#82b366;" parent="1" vertex="1">
          <mxGeometry x="-550" y="430" width="120" height="60" as="geometry" />
        </mxCell>
        <mxCell id="hhvbmtpyPsZvsXLc2sTJ-41" value="if user name is duplicated add (1) and so on to the end" style="rounded=0;whiteSpace=wrap;html=1;fontFamily=Roboto;fillColor=#e1d5e7;strokeColor=#9673a6;" parent="1" vertex="1">
          <mxGeometry x="-150" y="430" width="120" height="60" as="geometry" />
        </mxCell>
        <mxCell id="hhvbmtpyPsZvsXLc2sTJ-42" value="Allow to change &lt;br&gt;the name&amp;nbsp;" style="rounded=0;whiteSpace=wrap;html=1;fontFamily=Roboto;fillColor=#dae8fc;strokeColor=#6c8ebf;" parent="1" vertex="1">
          <mxGeometry x="-350" y="260" width="120" height="60" as="geometry" />
        </mxCell>
        <mxCell id="hhvbmtpyPsZvsXLc2sTJ-43" value="user experience" style="text;html=1;strokeColor=#6c8ebf;fillColor=#dae8fc;align=center;verticalAlign=middle;whiteSpace=wrap;rounded=0;fontFamily=Roboto;" parent="1" vertex="1">
          <mxGeometry x="-359" y="30" width="121" height="20" as="geometry" />
        </mxCell>
        <mxCell id="hhvbmtpyPsZvsXLc2sTJ-47" value="Add inventory concept" style="rounded=0;whiteSpace=wrap;html=1;fontFamily=Roboto;fillColor=#ffe6cc;strokeColor=#d79b00;" parent="1" vertex="1">
          <mxGeometry x="-1015" y="330" width="120" height="60" as="geometry" />
        </mxCell>
        <mxCell id="hhvbmtpyPsZvsXLc2sTJ-48" value="Add use( ) function" style="rounded=0;whiteSpace=wrap;html=1;fontFamily=Roboto;fillColor=#ffe6cc;strokeColor=#d79b00;" parent="1" vertex="1">
          <mxGeometry x="-885" y="330" width="120" height="60" as="geometry" />
        </mxCell>
        <mxCell id="dsrpRAJwARRAVhw4RFIG-6" value="loop code to update element state, e.g. move" style="rounded=0;whiteSpace=wrap;html=1;fontFamily=Roboto;fillColor=#ffe6cc;strokeColor=#d79b00;" parent="1" vertex="1">
          <mxGeometry x="-950" y="190" width="120" height="60" as="geometry" />
        </mxCell>
        <mxCell id="dsrpRAJwARRAVhw4RFIG-7" value="notify if change selection to loose code" style="rounded=0;whiteSpace=wrap;html=1;fontFamily=Roboto;fillColor=#ffe6cc;strokeColor=#d79b00;" parent="1" vertex="1">
          <mxGeometry x="-950" y="437" width="120" height="60" as="geometry" />
        </mxCell>
        <mxCell id="dsrpRAJwARRAVhw4RFIG-8" value="Function to wait for choosing a point&amp;nbsp;" style="rounded=0;whiteSpace=wrap;html=1;fontFamily=Roboto;fillColor=#ffe6cc;strokeColor=#d79b00;" parent="1" vertex="1">
          <mxGeometry x="-950" y="507" width="120" height="60" as="geometry" />
        </mxCell>
        <mxCell id="fmJ3L91N9C36IfXdmLS--3" value="Adjust camera to see front of character" style="rounded=0;whiteSpace=wrap;html=1;fontFamily=Roboto;fillColor=#dae8fc;strokeColor=#6c8ebf;" parent="1" vertex="1">
          <mxGeometry x="-350" y="640" width="120" height="60" as="geometry" />
        </mxCell>
        <mxCell id="UtXDGszNjiBcBZFne_oH-5" value="0.6.0&lt;br&gt;Alpha 3" style="text;html=1;strokeColor=none;fillColor=none;align=center;verticalAlign=middle;whiteSpace=wrap;rounded=0;fontFamily=Roboto;fontStyle=1" parent="1" vertex="1">
          <mxGeometry x="-1110" y="150" width="50" height="20" as="geometry" />
        </mxCell>
        <mxCell id="UtXDGszNjiBcBZFne_oH-6" value="&lt;ul&gt;&lt;li&gt;Multiplayer&lt;/li&gt;&lt;li&gt;Colision coding&lt;/li&gt;&lt;li&gt;Portal&lt;/li&gt;&lt;li&gt;Road snaping&lt;/li&gt;&lt;/ul&gt;" style="text;html=1;strokeColor=none;fillColor=none;align=left;verticalAlign=middle;whiteSpace=wrap;rounded=0;fontFamily=Roboto;labelPosition=center;verticalLabelPosition=middle;" parent="1" vertex="1">
          <mxGeometry x="-1140" y="190" width="150" height="60" as="geometry" />
        </mxCell>
        <mxCell id="UtXDGszNjiBcBZFne_oH-7" value="0.7.0&lt;br&gt;Alpha 4" style="text;html=1;strokeColor=none;fillColor=none;align=center;verticalAlign=middle;whiteSpace=wrap;rounded=0;fontFamily=Roboto;fontStyle=1" parent="1" vertex="1">
          <mxGeometry x="-1110" y="440" width="50" height="20" as="geometry" />
        </mxCell>
        <mxCell id="UtXDGszNjiBcBZFne_oH-8" value="&lt;ul&gt;&lt;li&gt;TBD&lt;/li&gt;&lt;/ul&gt;" style="text;html=1;strokeColor=none;fillColor=none;align=left;verticalAlign=middle;whiteSpace=wrap;rounded=0;fontFamily=Roboto;labelPosition=center;verticalLabelPosition=middle;" parent="1" vertex="1">
          <mxGeometry x="-1140" y="450" width="150" height="60" as="geometry" />
        </mxCell>
        <mxCell id="UtXDGszNjiBcBZFne_oH-10" value="Show quick guide when start" style="rounded=0;whiteSpace=wrap;html=1;fontFamily=Roboto;fillColor=#dae8fc;strokeColor=#6c8ebf;" parent="1" vertex="1">
          <mxGeometry x="-348" y="330" width="120" height="60" as="geometry" />
        </mxCell>
        <mxCell id="1srUZBj9I2RM_DjAxFQg-2" value="" style="endArrow=none;dashed=1;html=1;fontFamily=Roboto;" edge="1" parent="1">
          <mxGeometry width="50" height="50" relative="1" as="geometry">
            <mxPoint x="-1120" y="420" as="sourcePoint" />
            <mxPoint x="-10" y="420" as="targetPoint" />
          </mxGeometry>
        </mxCell>
      </root>
    </mxGraphModel>
  </diagram>
  <diagram id="uf3VohVR5--FoNrhuXZk" name="actions2features">
    <mxGraphModel dx="4063" dy="4003" grid="1" gridSize="10" guides="1" tooltips="1" connect="1" arrows="1" fold="1" page="1" pageScale="1" pageWidth="1169" pageHeight="827" math="0" shadow="0">
      <root>
        <mxCell id="f-MwYzu-iNJRMG62rzvz-0" />
        <mxCell id="f-MwYzu-iNJRMG62rzvz-1" parent="f-MwYzu-iNJRMG62rzvz-0" />
        <mxCell id="C9EqGaw9Awp7wu1UvfoN-1" value="code reactions" style="rounded=0;whiteSpace=wrap;html=1;fontFamily=Roboto;" parent="f-MwYzu-iNJRMG62rzvz-1" vertex="1">
          <mxGeometry x="431" y="-870" width="120" height="60" as="geometry" />
        </mxCell>
        <mxCell id="C9EqGaw9Awp7wu1UvfoN-2" value="code constant behaviour&amp;nbsp;" style="rounded=0;whiteSpace=wrap;html=1;fontFamily=Roboto;" parent="f-MwYzu-iNJRMG62rzvz-1" vertex="1">
          <mxGeometry x="561" y="-870" width="120" height="60" as="geometry" />
        </mxCell>
        <mxCell id="C9EqGaw9Awp7wu1UvfoN-3" value="stuff can move &lt;br&gt;in the screen" style="rounded=0;whiteSpace=wrap;html=1;fontFamily=Roboto;" parent="f-MwYzu-iNJRMG62rzvz-1" vertex="1">
          <mxGeometry x="431" y="-1010" width="120" height="60" as="geometry" />
        </mxCell>
        <mxCell id="C9EqGaw9Awp7wu1UvfoN-4" value="user can &lt;br&gt;collect stuff" style="rounded=0;whiteSpace=wrap;html=1;fontFamily=Roboto;" parent="f-MwYzu-iNJRMG62rzvz-1" vertex="1">
          <mxGeometry x="561" y="-940" width="120" height="60" as="geometry" />
        </mxCell>
        <mxCell id="C9EqGaw9Awp7wu1UvfoN-5" value="code together&amp;nbsp;" style="rounded=0;whiteSpace=wrap;html=1;fontFamily=Roboto;" parent="f-MwYzu-iNJRMG62rzvz-1" vertex="1">
          <mxGeometry x="791" y="-1010" width="120" height="60" as="geometry" />
        </mxCell>
        <mxCell id="C9EqGaw9Awp7wu1UvfoN-6" value="play sound &lt;br&gt;effects " style="rounded=0;whiteSpace=wrap;html=1;fontFamily=Roboto;" parent="f-MwYzu-iNJRMG62rzvz-1" vertex="1">
          <mxGeometry x="201" y="-940" width="120" height="60" as="geometry" />
        </mxCell>
        <mxCell id="C9EqGaw9Awp7wu1UvfoN-7" value="create scenario&lt;br&gt;&amp;nbsp;using code" style="rounded=0;whiteSpace=wrap;html=1;fontFamily=Roboto;" parent="f-MwYzu-iNJRMG62rzvz-1" vertex="1">
          <mxGeometry x="431" y="-940" width="120" height="60" as="geometry" />
        </mxCell>
        <mxCell id="C9EqGaw9Awp7wu1UvfoN-8" value="explore &lt;br&gt;the scenario" style="rounded=0;whiteSpace=wrap;html=1;fontFamily=Roboto;" parent="f-MwYzu-iNJRMG62rzvz-1" vertex="1">
          <mxGeometry x="71" y="-1010" width="120" height="60" as="geometry" />
        </mxCell>
        <mxCell id="C9EqGaw9Awp7wu1UvfoN-9" value="go up and &lt;br&gt;down in the &lt;br&gt;scenario" style="rounded=0;whiteSpace=wrap;html=1;fontFamily=Roboto;" parent="f-MwYzu-iNJRMG62rzvz-1" vertex="1">
          <mxGeometry x="71" y="-940" width="120" height="60" as="geometry" />
        </mxCell>
        <mxCell id="C9EqGaw9Awp7wu1UvfoN-10" value="teleport" style="rounded=0;whiteSpace=wrap;html=1;fontFamily=Roboto;" parent="f-MwYzu-iNJRMG62rzvz-1" vertex="1">
          <mxGeometry x="201" y="-1010" width="120" height="60" as="geometry" />
        </mxCell>
        <mxCell id="wGwSlYyoye6uD7w-MdRh-0" value="share realm&lt;br&gt;using URL" style="rounded=0;whiteSpace=wrap;html=1;fontFamily=Roboto;" parent="f-MwYzu-iNJRMG62rzvz-1" vertex="1">
          <mxGeometry x="791" y="-940" width="120" height="60" as="geometry" />
        </mxCell>
        <mxCell id="wGwSlYyoye6uD7w-MdRh-1" value="lock map" style="rounded=0;whiteSpace=wrap;html=1;fontFamily=Roboto;" parent="f-MwYzu-iNJRMG62rzvz-1" vertex="1">
          <mxGeometry x="791" y="-870" width="120" height="60" as="geometry" />
        </mxCell>
        <mxCell id="wGwSlYyoye6uD7w-MdRh-2" value="switch to &lt;br&gt;local mode" style="rounded=0;whiteSpace=wrap;html=1;fontFamily=Roboto;" parent="f-MwYzu-iNJRMG62rzvz-1" vertex="1">
          <mxGeometry x="921" y="-870" width="120" height="60" as="geometry" />
        </mxCell>
        <mxCell id="wGwSlYyoye6uD7w-MdRh-6" value="save &lt;br&gt;screenshots" style="rounded=0;whiteSpace=wrap;html=1;fontFamily=Roboto;" parent="f-MwYzu-iNJRMG62rzvz-1" vertex="1">
          <mxGeometry x="921" y="-1010" width="120" height="60" as="geometry" />
        </mxCell>
        <mxCell id="wGwSlYyoye6uD7w-MdRh-7" value="change camera" style="rounded=0;whiteSpace=wrap;html=1;fontFamily=Roboto;" parent="f-MwYzu-iNJRMG62rzvz-1" vertex="1">
          <mxGeometry x="921" y="-940" width="120" height="60" as="geometry" />
        </mxCell>
        <mxCell id="wGwSlYyoye6uD7w-MdRh-11" value="TO SHARE" style="rounded=0;whiteSpace=wrap;html=1;fontFamily=Roboto;" parent="f-MwYzu-iNJRMG62rzvz-1" vertex="1">
          <mxGeometry x="791" y="-1320" width="120" height="60" as="geometry" />
        </mxCell>
        <mxCell id="wGwSlYyoye6uD7w-MdRh-12" value="TO CODE" style="rounded=0;whiteSpace=wrap;html=1;fontFamily=Roboto;" parent="f-MwYzu-iNJRMG62rzvz-1" vertex="1">
          <mxGeometry x="431" y="-1320" width="120" height="60" as="geometry" />
        </mxCell>
        <mxCell id="wGwSlYyoye6uD7w-MdRh-13" value="TO EXPLORE" style="rounded=0;whiteSpace=wrap;html=1;fontFamily=Roboto;" parent="f-MwYzu-iNJRMG62rzvz-1" vertex="1">
          <mxGeometry x="71" y="-1320" width="120" height="60" as="geometry" />
        </mxCell>
        <mxCell id="wGwSlYyoye6uD7w-MdRh-15" value="TO REMEMBER" style="rounded=0;whiteSpace=wrap;html=1;fontFamily=Roboto;" parent="f-MwYzu-iNJRMG62rzvz-1" vertex="1">
          <mxGeometry x="921" y="-1320" width="120" height="60" as="geometry" />
        </mxCell>
        <mxCell id="wGwSlYyoye6uD7w-MdRh-16" value="TO CONTROL" style="rounded=0;whiteSpace=wrap;html=1;fontFamily=Roboto;" parent="f-MwYzu-iNJRMG62rzvz-1" vertex="1">
          <mxGeometry x="561" y="-1320" width="120" height="60" as="geometry" />
        </mxCell>
        <mxCell id="wGwSlYyoye6uD7w-MdRh-17" value="TO CREATE" style="rounded=0;whiteSpace=wrap;html=1;fontFamily=Roboto;" parent="f-MwYzu-iNJRMG62rzvz-1" vertex="1">
          <mxGeometry x="495" y="-1390" width="120" height="60" as="geometry" />
        </mxCell>
        <mxCell id="wGwSlYyoye6uD7w-MdRh-18" value="TO TELL &lt;br&gt;STORIES" style="rounded=0;whiteSpace=wrap;html=1;fontFamily=Roboto;" parent="f-MwYzu-iNJRMG62rzvz-1" vertex="1">
          <mxGeometry x="201" y="-1320" width="120" height="60" as="geometry" />
        </mxCell>
        <mxCell id="wGwSlYyoye6uD7w-MdRh-19" value="TO LIVE &lt;br&gt;STORIES" style="rounded=0;whiteSpace=wrap;html=1;fontFamily=Roboto;" parent="f-MwYzu-iNJRMG62rzvz-1" vertex="1">
          <mxGeometry x="131" y="-1390" width="120" height="60" as="geometry" />
        </mxCell>
        <mxCell id="wGwSlYyoye6uD7w-MdRh-20" value="TO EXPERIENCE TOGETHER" style="rounded=0;whiteSpace=wrap;html=1;fontFamily=Roboto;" parent="f-MwYzu-iNJRMG62rzvz-1" vertex="1">
          <mxGeometry x="71" y="-1610" width="970" height="60" as="geometry" />
        </mxCell>
        <mxCell id="wGwSlYyoye6uD7w-MdRh-21" value="TO EXPERIENCE TOGETHER" style="rounded=0;whiteSpace=wrap;html=1;fontFamily=Roboto;" parent="f-MwYzu-iNJRMG62rzvz-1" vertex="1">
          <mxGeometry x="861" y="-1390" width="120" height="60" as="geometry" />
        </mxCell>
        <mxCell id="wGwSlYyoye6uD7w-MdRh-23" value="TO BUILD" style="rounded=0;whiteSpace=wrap;html=1;fontFamily=Roboto;" parent="f-MwYzu-iNJRMG62rzvz-1" vertex="1">
          <mxGeometry x="431" y="-1250" width="120" height="60" as="geometry" />
        </mxCell>
        <mxCell id="wGwSlYyoye6uD7w-MdRh-26" value="" style="html=1;shadow=0;dashed=0;align=center;verticalAlign=middle;shape=mxgraph.arrows2.arrow;dy=0.6;dx=40;notch=0;fontFamily=Roboto;rotation=90;flipV=1;flipH=1;" parent="f-MwYzu-iNJRMG62rzvz-1" vertex="1">
          <mxGeometry x="505" y="-1490" width="100" height="70" as="geometry" />
        </mxCell>
        <mxCell id="wGwSlYyoye6uD7w-MdRh-29" value="" style="endArrow=none;dashed=1;html=1;dashPattern=1 3;strokeWidth=2;fontFamily=Roboto;" parent="f-MwYzu-iNJRMG62rzvz-1" edge="1">
          <mxGeometry width="50" height="50" relative="1" as="geometry">
            <mxPoint x="30" y="-1160" as="sourcePoint" />
            <mxPoint x="1140" y="-1160" as="targetPoint" />
          </mxGeometry>
        </mxCell>
        <mxCell id="wGwSlYyoye6uD7w-MdRh-30" value="FEATURES" style="text;html=1;strokeColor=none;fillColor=none;align=center;verticalAlign=middle;whiteSpace=wrap;rounded=0;fontFamily=Roboto;fontStyle=1" parent="f-MwYzu-iNJRMG62rzvz-1" vertex="1">
          <mxGeometry x="30" y="-1160" width="81" height="20" as="geometry" />
        </mxCell>
        <mxCell id="wGwSlYyoye6uD7w-MdRh-31" value="import 3D &lt;br&gt;models" style="rounded=0;whiteSpace=wrap;html=1;fontFamily=Roboto;" parent="f-MwYzu-iNJRMG62rzvz-1" vertex="1">
          <mxGeometry x="561" y="-1010" width="120" height="60" as="geometry" />
        </mxCell>
        <mxCell id="wGwSlYyoye6uD7w-MdRh-32" value="" style="html=1;shadow=0;dashed=0;align=center;verticalAlign=middle;shape=mxgraph.arrows2.arrow;dy=0.6;dx=40;notch=0;fontFamily=Roboto;rotation=90;flipV=1;flipH=1;" parent="f-MwYzu-iNJRMG62rzvz-1" vertex="1">
          <mxGeometry x="871" y="-1490" width="100" height="70" as="geometry" />
        </mxCell>
        <mxCell id="wGwSlYyoye6uD7w-MdRh-33" value="" style="html=1;shadow=0;dashed=0;align=center;verticalAlign=middle;shape=mxgraph.arrows2.arrow;dy=0.6;dx=40;notch=0;fontFamily=Roboto;rotation=90;flipV=1;flipH=1;" parent="f-MwYzu-iNJRMG62rzvz-1" vertex="1">
          <mxGeometry x="141" y="-1490" width="100" height="70" as="geometry" />
        </mxCell>
        <mxCell id="wGwSlYyoye6uD7w-MdRh-35" value="" style="html=1;shadow=0;dashed=0;align=center;verticalAlign=middle;shape=mxgraph.arrows2.arrow;dy=0.6;dx=40;notch=0;fontFamily=Roboto;rotation=90;flipV=1;flipH=1;" parent="f-MwYzu-iNJRMG62rzvz-1" vertex="1">
          <mxGeometry x="869" y="-1130" width="100" height="70" as="geometry" />
        </mxCell>
        <mxCell id="wGwSlYyoye6uD7w-MdRh-36" value="" style="html=1;shadow=0;dashed=0;align=center;verticalAlign=middle;shape=mxgraph.arrows2.arrow;dy=0.6;dx=40;notch=0;fontFamily=Roboto;rotation=90;flipV=1;flipH=1;" parent="f-MwYzu-iNJRMG62rzvz-1" vertex="1">
          <mxGeometry x="139" y="-1130" width="100" height="70" as="geometry" />
        </mxCell>
        <mxCell id="wGwSlYyoye6uD7w-MdRh-37" value="" style="html=1;shadow=0;dashed=0;align=center;verticalAlign=middle;shape=mxgraph.arrows2.arrow;dy=0.6;dx=40;notch=0;fontFamily=Roboto;rotation=90;flipV=1;flipH=1;" parent="f-MwYzu-iNJRMG62rzvz-1" vertex="1">
          <mxGeometry x="505" y="-1130" width="100" height="70" as="geometry" />
        </mxCell>
        <mxCell id="wGwSlYyoye6uD7w-MdRh-38" value="" style="endArrow=none;dashed=1;html=1;dashPattern=1 3;strokeWidth=2;fontFamily=Roboto;" parent="f-MwYzu-iNJRMG62rzvz-1" edge="1">
          <mxGeometry width="50" height="50" relative="1" as="geometry">
            <mxPoint x="30" y="-1520" as="sourcePoint" />
            <mxPoint x="1140" y="-1520" as="targetPoint" />
          </mxGeometry>
        </mxCell>
        <mxCell id="wGwSlYyoye6uD7w-MdRh-39" value="ACTIONS" style="text;html=1;strokeColor=none;fillColor=none;align=center;verticalAlign=middle;whiteSpace=wrap;rounded=0;fontFamily=Roboto;fontStyle=1" parent="f-MwYzu-iNJRMG62rzvz-1" vertex="1">
          <mxGeometry x="30" y="-1520" width="81" height="20" as="geometry" />
        </mxCell>
        <mxCell id="wGwSlYyoye6uD7w-MdRh-40" value="custom images on scenario" style="rounded=0;whiteSpace=wrap;html=1;fontFamily=Roboto;" parent="f-MwYzu-iNJRMG62rzvz-1" vertex="1">
          <mxGeometry x="561" y="-800" width="120" height="60" as="geometry" />
        </mxCell>
        <mxCell id="wGwSlYyoye6uD7w-MdRh-41" value="custom text on scenario" style="rounded=0;whiteSpace=wrap;html=1;fontFamily=Roboto;" parent="f-MwYzu-iNJRMG62rzvz-1" vertex="1">
          <mxGeometry x="431" y="-800" width="120" height="60" as="geometry" />
        </mxCell>
      </root>
    </mxGraphModel>
  </diagram>
  <diagram id="-lkqQ7bSAg6FVTnzYXF7" name="must-should-could">
    <mxGraphModel dx="2591" dy="2476" grid="1" gridSize="10" guides="1" tooltips="1" connect="1" arrows="1" fold="1" page="1" pageScale="1" pageWidth="1169" pageHeight="827" math="0" shadow="0">
      <root>
        <mxCell id="GWi-D8zaja33CtwI0JId-0" />
        <mxCell id="GWi-D8zaja33CtwI0JId-1" parent="GWi-D8zaja33CtwI0JId-0" />
        <mxCell id="mzFQ615VZ31-wUtyoEQC-0" value="code reactions" style="rounded=0;whiteSpace=wrap;html=1;fontFamily=Roboto;fillColor=#fff2cc;strokeColor=#d6b656;" parent="GWi-D8zaja33CtwI0JId-1" vertex="1">
          <mxGeometry x="-740" y="-980" width="120" height="60" as="geometry" />
        </mxCell>
        <mxCell id="mzFQ615VZ31-wUtyoEQC-1" value="code constant behaviour&amp;nbsp;" style="rounded=0;whiteSpace=wrap;html=1;fontFamily=Roboto;fillColor=#fff2cc;strokeColor=#d6b656;" parent="GWi-D8zaja33CtwI0JId-1" vertex="1">
          <mxGeometry x="-610" y="-980" width="120" height="60" as="geometry" />
        </mxCell>
        <mxCell id="mzFQ615VZ31-wUtyoEQC-2" value="stuff can move &lt;br&gt;in the screen" style="rounded=0;whiteSpace=wrap;html=1;fontFamily=Roboto;fillColor=#d5e8d4;strokeColor=#82b366;" parent="GWi-D8zaja33CtwI0JId-1" vertex="1">
          <mxGeometry x="-740" y="-1050" width="120" height="60" as="geometry" />
        </mxCell>
        <mxCell id="mzFQ615VZ31-wUtyoEQC-3" value="user can &lt;br&gt;collect stuff" style="rounded=0;whiteSpace=wrap;html=1;fontFamily=Roboto;fillColor=#d5e8d4;strokeColor=#82b366;" parent="GWi-D8zaja33CtwI0JId-1" vertex="1">
          <mxGeometry x="-610" y="-1120" width="120" height="60" as="geometry" />
        </mxCell>
        <mxCell id="mzFQ615VZ31-wUtyoEQC-4" value="code together&amp;nbsp;" style="rounded=0;whiteSpace=wrap;html=1;fontFamily=Roboto;fillColor=#dae8fc;strokeColor=#6c8ebf;" parent="GWi-D8zaja33CtwI0JId-1" vertex="1">
          <mxGeometry x="-428" y="-1240" width="120" height="60" as="geometry" />
        </mxCell>
        <mxCell id="mzFQ615VZ31-wUtyoEQC-5" value="play sound &lt;br&gt;effects " style="rounded=0;whiteSpace=wrap;html=1;fontFamily=Roboto;fillColor=#dae8fc;strokeColor=#6c8ebf;" parent="GWi-D8zaja33CtwI0JId-1" vertex="1">
          <mxGeometry x="-921" y="-1240" width="120" height="60" as="geometry" />
        </mxCell>
        <mxCell id="mzFQ615VZ31-wUtyoEQC-6" value="create scenario&lt;br&gt;&amp;nbsp;using code" style="rounded=0;whiteSpace=wrap;html=1;fontFamily=Roboto;fillColor=#dae8fc;strokeColor=#6c8ebf;" parent="GWi-D8zaja33CtwI0JId-1" vertex="1">
          <mxGeometry x="-610" y="-1240" width="120" height="60" as="geometry" />
        </mxCell>
        <mxCell id="mzFQ615VZ31-wUtyoEQC-8" value="go up and &lt;br&gt;down in the &lt;br&gt;scenario" style="rounded=0;whiteSpace=wrap;html=1;fontFamily=Roboto;fillColor=#fff2cc;strokeColor=#d6b656;" parent="GWi-D8zaja33CtwI0JId-1" vertex="1">
          <mxGeometry x="-921" y="-980" width="120" height="60" as="geometry" />
        </mxCell>
        <mxCell id="mzFQ615VZ31-wUtyoEQC-9" value="teleport" style="rounded=0;whiteSpace=wrap;html=1;fontFamily=Roboto;fillColor=#d5e8d4;strokeColor=#82b366;" parent="GWi-D8zaja33CtwI0JId-1" vertex="1">
          <mxGeometry x="-1050" y="-1150" width="120" height="60" as="geometry" />
        </mxCell>
        <mxCell id="mzFQ615VZ31-wUtyoEQC-10" value="share realm&lt;br&gt;using URL" style="rounded=0;whiteSpace=wrap;html=1;fontFamily=Roboto;fillColor=#d5e8d4;strokeColor=#82b366;" parent="GWi-D8zaja33CtwI0JId-1" vertex="1">
          <mxGeometry x="-297" y="-1150" width="120" height="60" as="geometry" />
        </mxCell>
        <mxCell id="mzFQ615VZ31-wUtyoEQC-11" value="lock map" style="rounded=0;whiteSpace=wrap;html=1;fontFamily=Roboto;fillColor=#fff2cc;strokeColor=#d6b656;" parent="GWi-D8zaja33CtwI0JId-1" vertex="1">
          <mxGeometry x="-428" y="-980" width="120" height="60" as="geometry" />
        </mxCell>
        <mxCell id="mzFQ615VZ31-wUtyoEQC-12" value="switch to &lt;br&gt;local mode" style="rounded=0;whiteSpace=wrap;html=1;fontFamily=Roboto;fillColor=#fff2cc;strokeColor=#d6b656;" parent="GWi-D8zaja33CtwI0JId-1" vertex="1">
          <mxGeometry x="-428" y="-910" width="120" height="60" as="geometry" />
        </mxCell>
        <mxCell id="mzFQ615VZ31-wUtyoEQC-13" value="save &lt;br&gt;screenshots" style="rounded=0;whiteSpace=wrap;html=1;fontFamily=Roboto;fillColor=#fff2cc;strokeColor=#d6b656;" parent="GWi-D8zaja33CtwI0JId-1" vertex="1">
          <mxGeometry x="-298" y="-980" width="120" height="60" as="geometry" />
        </mxCell>
        <mxCell id="mzFQ615VZ31-wUtyoEQC-14" value="change camera" style="rounded=0;whiteSpace=wrap;html=1;fontFamily=Roboto;fillColor=#fff2cc;strokeColor=#d6b656;" parent="GWi-D8zaja33CtwI0JId-1" vertex="1">
          <mxGeometry x="-298" y="-910" width="120" height="60" as="geometry" />
        </mxCell>
        <mxCell id="mzFQ615VZ31-wUtyoEQC-15" value="TO SHARE" style="rounded=0;whiteSpace=wrap;html=1;fontFamily=Roboto;" parent="GWi-D8zaja33CtwI0JId-1" vertex="1">
          <mxGeometry x="-427" y="-1420" width="120" height="60" as="geometry" />
        </mxCell>
        <mxCell id="mzFQ615VZ31-wUtyoEQC-16" value="TO CODE" style="rounded=0;whiteSpace=wrap;html=1;fontFamily=Roboto;" parent="GWi-D8zaja33CtwI0JId-1" vertex="1">
          <mxGeometry x="-738" y="-1420" width="120" height="60" as="geometry" />
        </mxCell>
        <mxCell id="mzFQ615VZ31-wUtyoEQC-17" value="TO EXPLORE" style="rounded=0;whiteSpace=wrap;html=1;fontFamily=Roboto;" parent="GWi-D8zaja33CtwI0JId-1" vertex="1">
          <mxGeometry x="-1050" y="-1420" width="120" height="60" as="geometry" />
        </mxCell>
        <mxCell id="mzFQ615VZ31-wUtyoEQC-18" value="TO REMEMBER" style="rounded=0;whiteSpace=wrap;html=1;fontFamily=Roboto;" parent="GWi-D8zaja33CtwI0JId-1" vertex="1">
          <mxGeometry x="-297" y="-1420" width="120" height="60" as="geometry" />
        </mxCell>
        <mxCell id="mzFQ615VZ31-wUtyoEQC-19" value="TO CONTROL" style="rounded=0;whiteSpace=wrap;html=1;fontFamily=Roboto;" parent="GWi-D8zaja33CtwI0JId-1" vertex="1">
          <mxGeometry x="-608" y="-1420" width="120" height="60" as="geometry" />
        </mxCell>
        <mxCell id="mzFQ615VZ31-wUtyoEQC-20" value="TO CREATE" style="rounded=0;whiteSpace=wrap;html=1;fontFamily=Roboto;" parent="GWi-D8zaja33CtwI0JId-1" vertex="1">
          <mxGeometry x="-674" y="-1490" width="120" height="60" as="geometry" />
        </mxCell>
        <mxCell id="mzFQ615VZ31-wUtyoEQC-21" value="TO TELL &lt;br&gt;STORIES" style="rounded=0;whiteSpace=wrap;html=1;fontFamily=Roboto;" parent="GWi-D8zaja33CtwI0JId-1" vertex="1">
          <mxGeometry x="-920" y="-1420" width="120" height="60" as="geometry" />
        </mxCell>
        <mxCell id="mzFQ615VZ31-wUtyoEQC-22" value="TO LIVE &lt;br&gt;STORIES" style="rounded=0;whiteSpace=wrap;html=1;fontFamily=Roboto;" parent="GWi-D8zaja33CtwI0JId-1" vertex="1">
          <mxGeometry x="-990" y="-1490" width="120" height="60" as="geometry" />
        </mxCell>
        <mxCell id="mzFQ615VZ31-wUtyoEQC-23" value="TO EXPERIENCE TOGETHER" style="rounded=0;whiteSpace=wrap;html=1;fontFamily=Roboto;" parent="GWi-D8zaja33CtwI0JId-1" vertex="1">
          <mxGeometry x="-1050" y="-1630" width="890" height="60" as="geometry" />
        </mxCell>
        <mxCell id="mzFQ615VZ31-wUtyoEQC-24" value="TO EXPERIENCE TOGETHER" style="rounded=0;whiteSpace=wrap;html=1;fontFamily=Roboto;" parent="GWi-D8zaja33CtwI0JId-1" vertex="1">
          <mxGeometry x="-357" y="-1490" width="120" height="60" as="geometry" />
        </mxCell>
        <mxCell id="mzFQ615VZ31-wUtyoEQC-25" value="TO BUILD" style="rounded=0;whiteSpace=wrap;html=1;fontFamily=Roboto;" parent="GWi-D8zaja33CtwI0JId-1" vertex="1">
          <mxGeometry x="-738" y="-1350" width="120" height="60" as="geometry" />
        </mxCell>
        <mxCell id="mzFQ615VZ31-wUtyoEQC-28" value="FEATURES" style="text;html=1;strokeColor=none;fillColor=none;align=center;verticalAlign=middle;whiteSpace=wrap;rounded=0;fontFamily=Roboto;fontStyle=1" parent="GWi-D8zaja33CtwI0JId-1" vertex="1">
          <mxGeometry x="-1100" y="-1250" width="81" height="20" as="geometry" />
        </mxCell>
        <mxCell id="mzFQ615VZ31-wUtyoEQC-29" value="import 3D &lt;br&gt;models" style="rounded=0;whiteSpace=wrap;html=1;fontFamily=Roboto;fillColor=#d5e8d4;strokeColor=#82b366;" parent="GWi-D8zaja33CtwI0JId-1" vertex="1">
          <mxGeometry x="-738" y="-1150" width="120" height="60" as="geometry" />
        </mxCell>
        <mxCell id="mzFQ615VZ31-wUtyoEQC-36" value="ACTIONS" style="text;html=1;strokeColor=none;fillColor=none;align=center;verticalAlign=middle;whiteSpace=wrap;rounded=0;fontFamily=Roboto;fontStyle=1" parent="GWi-D8zaja33CtwI0JId-1" vertex="1">
          <mxGeometry x="-1100" y="-1540" width="81" height="20" as="geometry" />
        </mxCell>
        <mxCell id="mzFQ615VZ31-wUtyoEQC-37" value="custom images on scenario" style="rounded=0;whiteSpace=wrap;html=1;fontFamily=Roboto;fillColor=#dae8fc;strokeColor=#6c8ebf;" parent="GWi-D8zaja33CtwI0JId-1" vertex="1">
          <mxGeometry x="-739" y="-1240" width="120" height="60" as="geometry" />
        </mxCell>
        <mxCell id="mzFQ615VZ31-wUtyoEQC-38" value="custom text on scenario" style="rounded=0;whiteSpace=wrap;html=1;fontFamily=Roboto;fillColor=#fff2cc;strokeColor=#d6b656;" parent="GWi-D8zaja33CtwI0JId-1" vertex="1">
          <mxGeometry x="-740" y="-910" width="120" height="60" as="geometry" />
        </mxCell>
        <mxCell id="mzFQ615VZ31-wUtyoEQC-48" value="user can &lt;br&gt;use stuff" style="rounded=0;whiteSpace=wrap;html=1;fontFamily=Roboto;fillColor=#d5e8d4;strokeColor=#82b366;" parent="GWi-D8zaja33CtwI0JId-1" vertex="1">
          <mxGeometry x="-609" y="-1050" width="120" height="60" as="geometry" />
        </mxCell>
        <mxCell id="mzFQ615VZ31-wUtyoEQC-49" value="must" style="rounded=0;whiteSpace=wrap;html=1;fontFamily=Roboto;fillColor=#dae8fc;strokeColor=#6c8ebf;" parent="GWi-D8zaja33CtwI0JId-1" vertex="1">
          <mxGeometry x="-1089" y="-910" width="70" height="20" as="geometry" />
        </mxCell>
        <mxCell id="mzFQ615VZ31-wUtyoEQC-50" value="should" style="rounded=0;whiteSpace=wrap;html=1;fontFamily=Roboto;fillColor=#d5e8d4;strokeColor=#82b366;" parent="GWi-D8zaja33CtwI0JId-1" vertex="1">
          <mxGeometry x="-1089" y="-890" width="70" height="20" as="geometry" />
        </mxCell>
        <mxCell id="mzFQ615VZ31-wUtyoEQC-51" value="could" style="rounded=0;whiteSpace=wrap;html=1;fontFamily=Roboto;fillColor=#fff2cc;strokeColor=#d6b656;" parent="GWi-D8zaja33CtwI0JId-1" vertex="1">
          <mxGeometry x="-1089" y="-870" width="70" height="20" as="geometry" />
        </mxCell>
        <mxCell id="mzFQ615VZ31-wUtyoEQC-52" value="customize &lt;br&gt;character" style="rounded=0;whiteSpace=wrap;html=1;fontFamily=Roboto;fillColor=#d5e8d4;strokeColor=#82b366;" parent="GWi-D8zaja33CtwI0JId-1" vertex="1">
          <mxGeometry x="-428" y="-1150" width="120" height="60" as="geometry" />
        </mxCell>
        <mxCell id="F2gZqUtxbRjOsbwsG7tb-5" value="" style="endArrow=none;dashed=1;html=1;dashPattern=1 3;strokeWidth=2;fontFamily=Roboto;" edge="1" parent="GWi-D8zaja33CtwI0JId-1">
          <mxGeometry width="50" height="50" relative="1" as="geometry">
            <mxPoint x="-1100" y="-1260" as="sourcePoint" />
            <mxPoint x="-120" y="-1260" as="targetPoint" />
          </mxGeometry>
        </mxCell>
        <mxCell id="F2gZqUtxbRjOsbwsG7tb-6" value="" style="endArrow=none;dashed=1;html=1;dashPattern=1 3;strokeWidth=2;fontFamily=Roboto;" edge="1" parent="GWi-D8zaja33CtwI0JId-1">
          <mxGeometry width="50" height="50" relative="1" as="geometry">
            <mxPoint x="-1100" y="-1540" as="sourcePoint" />
            <mxPoint x="-120" y="-1540" as="targetPoint" />
          </mxGeometry>
        </mxCell>
      </root>
    </mxGraphModel>
  </diagram>
  <diagram id="LPhQOKsPRYLgMXAbEZTG" name="sequence">
    <mxGraphModel dx="981" dy="2221" grid="1" gridSize="10" guides="1" tooltips="1" connect="1" arrows="1" fold="1" page="1" pageScale="1" pageWidth="1169" pageHeight="827" math="0" shadow="0">
      <root>
        <mxCell id="sJCX-qIshpu4l6-E9p5W-0" />
        <mxCell id="sJCX-qIshpu4l6-E9p5W-1" parent="sJCX-qIshpu4l6-E9p5W-0" />
        <mxCell id="L6VbVTwph90rxseI2ucG-0" value="code together&amp;nbsp;" style="rounded=0;whiteSpace=wrap;html=1;fontFamily=Roboto;fillColor=#dae8fc;strokeColor=#6c8ebf;" parent="sJCX-qIshpu4l6-E9p5W-1" vertex="1">
          <mxGeometry x="510" y="-1560" width="120" height="60" as="geometry" />
        </mxCell>
        <mxCell id="L6VbVTwph90rxseI2ucG-1" value="play sound &lt;br&gt;effects " style="rounded=0;whiteSpace=wrap;html=1;fontFamily=Roboto;fillColor=#dae8fc;strokeColor=#6c8ebf;" parent="sJCX-qIshpu4l6-E9p5W-1" vertex="1">
          <mxGeometry x="230" y="-1560" width="120" height="60" as="geometry" />
        </mxCell>
        <mxCell id="L6VbVTwph90rxseI2ucG-2" value="create scenario&lt;br&gt;&amp;nbsp;using code" style="rounded=0;whiteSpace=wrap;html=1;fontFamily=Roboto;fillColor=#dae8fc;strokeColor=#6c8ebf;" parent="sJCX-qIshpu4l6-E9p5W-1" vertex="1">
          <mxGeometry x="370" y="-1560" width="120" height="60" as="geometry" />
        </mxCell>
        <mxCell id="L6VbVTwph90rxseI2ucG-5" value="custom images on scenario" style="rounded=0;whiteSpace=wrap;html=1;fontFamily=Roboto;fillColor=#dae8fc;strokeColor=#6c8ebf;" parent="sJCX-qIshpu4l6-E9p5W-1" vertex="1">
          <mxGeometry x="90" y="-1560" width="120" height="60" as="geometry" />
        </mxCell>
      </root>
    </mxGraphModel>
  </diagram>
</mxfile>
